<svg width="71" height="71" viewBox="0 0 71 71" fill="none" xmlns="http://www.w3.org/2000/svg">
<path d="M61.1 4.60001H51.1L43.1 14.1" stroke="#682283" stroke-width="2"/>
<path d="M61.6 35.1H57.6" stroke="#682283" stroke-width="2"/>
<path d="M61.1 65.6H51.1L43.1 56.6" stroke="#682283" stroke-width="2"/>
<path d="M8.60001 65.6H19.1L27.1 56.6" stroke="#682283" stroke-width="2"/>
<circle cx="35.05" cy="35.05" r="22.45" stroke="#682283" stroke-width="2"/>
<path d="M24.1 41.6V32.1V31.6L24.6 31.1L25.1 30.6H25.6H26.1H44.1H45.1L45.6 31.1L46.1 32.1V41.6V42.6L45.6 43.6L45.1 44.6L44.1 46.1L43.6 46.6L42.6 47.6L41.6 48.6L40.1 49.6L39.1 50.1L38.1 50.6H37.6H37.1H36.1H35.1H33.1H32.1L31.1 50.1L30.1 49.6L29.1 49.1L28.6 48.6L28.1 48.1L27.6 47.6L27.1 47.1L26.6 46.6L26.1 46.1L25.6 45.6L25.1 44.6L24.6 43.6L24.1 42.6V42.1V41.6Z" stroke="#682283" stroke-width="2"/>
<path d="M41.1 29.6V24.1L40.6 23.1L40.1 22.1L39.1 21.1L38.6 20.6L37.1 19.6H36.6H33.1L32.1 20.1L31.6 20.6L31.1 21.1L30.6 21.6L30.1 22.1L29.6 22.6L29.1 23.6V24.6V29.6" stroke="#682283" stroke-width="2"/>
<circle cx="35.1" cy="38.1" r="3" stroke="#682283" stroke-width="2"/>
<path d="M35.1 41.1V46.1V46.6" stroke="#682283" stroke-width="2"/>
<circle cx="4.75" cy="4.75" r="3.75" stroke="#682283" stroke-width="2"/>
<circle cx="4.75" cy="35.25" r="3.75" stroke="#682283" stroke-width="2"/>
<circle cx="65.55" cy="35.25" r="3.75" stroke="#682283" stroke-width="2"/>
<circle cx="65.55" cy="65.55" r="3.75" stroke="#682283" stroke-width="2"/>
<circle cx="4.75" cy="65.55" r="3.75" stroke="#682283" stroke-width="2"/>
<circle cx="65.55" cy="4.75" r="3.75" stroke="#682283" stroke-width="2"/>
<path d="M8.60001 35.1H12.6" stroke="#682283" stroke-width="2"/>
<path d="M8.60001 4.60001H18.6H19.1L21.6 7.60001L26.6 13.6L27.1 14.1" stroke="#682283" stroke-width="2"/>
</svg>
