<svg width="376" height="78" viewBox="0 0 376 78" fill="none" xmlns="http://www.w3.org/2000/svg">
<path d="M61.1 8.25001H51.1L43.1 17.75" stroke="#682283" stroke-width="2"/>
<path d="M61.6 38.75H57.6" stroke="#682283" stroke-width="2"/>
<path d="M61.1 69.25H51.1L43.1 60.25" stroke="#682283" stroke-width="2"/>
<path d="M8.60001 69.25H19.1L27.1 60.25" stroke="#682283" stroke-width="2"/>
<circle cx="35.05" cy="38.7" r="22.45" stroke="#682283" stroke-width="2"/>
<path d="M24.1 45.25V35.75V35.25L24.6 34.75L25.1 34.25H25.6H26.1H44.1H45.1L45.6 34.75L46.1 35.75V45.25V46.25L45.6 47.25L45.1 48.25L44.1 49.75L43.6 50.25L42.6 51.25L41.6 52.25L40.1 53.25L39.1 53.75L38.1 54.25H37.6H37.1H36.1H35.1H33.1H32.1L31.1 53.75L30.1 53.25L29.1 52.75L28.6 52.25L28.1 51.75L27.6 51.25L27.1 50.75L26.6 50.25L26.1 49.75L25.6 49.25L25.1 48.25L24.6 47.25L24.1 46.25V45.75V45.25Z" stroke="#682283" stroke-width="2"/>
<path d="M41.1 33.25V27.75L40.6 26.75L40.1 25.75L39.1 24.75L38.6 24.25L37.1 23.25H36.6H33.1L32.1 23.75L31.6 24.25L31.1 24.75L30.6 25.25L30.1 25.75L29.6 26.25L29.1 27.25V28.25V33.25" stroke="#682283" stroke-width="2"/>
<circle cx="35.1" cy="41.75" r="3" stroke="#682283" stroke-width="2"/>
<path d="M35.1 44.75V49.75V50.25" stroke="#682283" stroke-width="2"/>
<circle cx="4.75" cy="8.40001" r="3.75" stroke="#682283" stroke-width="2"/>
<circle cx="4.75" cy="38.9" r="3.75" stroke="#682283" stroke-width="2"/>
<circle cx="65.55" cy="38.9" r="3.75" stroke="#682283" stroke-width="2"/>
<circle cx="65.55" cy="69.2" r="3.75" stroke="#682283" stroke-width="2"/>
<circle cx="4.75" cy="69.2" r="3.75" stroke="#682283" stroke-width="2"/>
<circle cx="65.55" cy="8.40001" r="3.75" stroke="#682283" stroke-width="2"/>
<path d="M8.60001 38.75H12.6" stroke="#682283" stroke-width="2"/>
<path d="M8.60001 8.25001H18.6H19.1L21.6 11.25L26.6 17.25L27.1 17.75" stroke="#682283" stroke-width="2"/>
<path d="M103.175 63.3V58.4875L108.144 57.55V23.8313H98.9875L98.3 29.6438H92.3938V17.8H131.8V29.6438H125.863L125.175 23.8313H116.019V57.55L120.988 58.4875V63.3H103.175ZM150.939 63.9563C147.751 63.9563 144.97 63.2479 142.595 61.8313C140.241 60.3938 138.408 58.4146 137.095 55.8938C135.803 53.3729 135.158 50.4875 135.158 47.2375V45.925C135.158 42.6333 135.793 39.7063 137.064 37.1438C138.355 34.5604 140.126 32.5396 142.376 31.0813C144.626 29.6021 147.189 28.8625 150.064 28.8625C153.126 28.8625 155.689 29.4771 157.751 30.7063C159.835 31.9354 161.408 33.6854 162.47 35.9563C163.533 38.2063 164.064 40.9146 164.064 44.0813V48.5813H143.314L143.251 48.7375C143.335 50.5083 143.699 52.0813 144.345 53.4563C145.012 54.8313 145.949 55.9146 147.158 56.7063C148.387 57.4979 149.876 57.8938 151.626 57.8938C153.46 57.8938 155.126 57.6438 156.626 57.1438C158.126 56.6438 159.512 55.9354 160.783 55.0188L163.251 59.9563C161.918 61.0813 160.22 62.0292 158.158 62.8C156.095 63.5708 153.689 63.9563 150.939 63.9563ZM143.439 43.05H156.533V42.2375C156.533 40.7583 156.303 39.4667 155.845 38.3625C155.408 37.2375 154.71 36.3625 153.751 35.7375C152.814 35.1125 151.616 34.8 150.158 34.8C148.887 34.8 147.772 35.1542 146.814 35.8625C145.855 36.5708 145.085 37.5396 144.501 38.7688C143.939 39.9771 143.553 41.3521 143.345 42.8938L143.439 43.05ZM170.796 63.3V58.4875L175.484 57.55V35.2688L170.546 34.3313V29.4875H182.734L183.14 33.7375L183.202 34.425C184.098 32.6333 185.192 31.2583 186.484 30.3C187.796 29.3417 189.327 28.8625 191.077 28.8625C191.661 28.8625 192.275 28.9146 192.921 29.0188C193.588 29.1229 194.13 29.2375 194.546 29.3625L193.64 36.6438L189.234 36.3938C187.796 36.3104 186.609 36.5917 185.671 37.2375C184.755 37.8833 183.984 38.7792 183.359 39.925V57.55L188.046 58.4875V63.3H170.796ZM200.029 63.3V58.4875L204.716 57.55V35.2688L199.779 34.3313V29.4875H211.966L212.373 33.7375L212.435 34.425C213.331 32.6333 214.425 31.2583 215.716 30.3C217.029 29.3417 218.56 28.8625 220.31 28.8625C220.893 28.8625 221.508 28.9146 222.154 29.0188C222.82 29.1229 223.362 29.2375 223.779 29.3625L222.873 36.6438L218.466 36.3938C217.029 36.3104 215.841 36.5917 214.904 37.2375C213.987 37.8833 213.216 38.7792 212.591 39.925V57.55L217.279 58.4875V63.3H200.029ZM239.699 63.9563C236.261 63.9563 233.584 63.0708 231.667 61.3C229.751 59.5292 228.792 57.0917 228.792 53.9875C228.792 51.8625 229.376 49.9979 230.542 48.3938C231.709 46.7896 233.417 45.5396 235.667 44.6438C237.917 43.7271 240.647 43.2688 243.855 43.2688H249.011V40.425C249.011 38.6333 248.47 37.2063 247.386 36.1438C246.324 35.0813 244.772 34.55 242.73 34.55C241.563 34.55 240.532 34.6958 239.636 34.9875C238.74 35.2583 237.938 35.6542 237.23 36.175L236.511 40.7375H230.73L230.667 32.3938C232.334 31.3104 234.188 30.4563 236.23 29.8313C238.272 29.1854 240.542 28.8625 243.042 28.8625C247.334 28.8625 250.709 29.8729 253.167 31.8938C255.647 33.8938 256.886 36.7688 256.886 40.5188V55.425C256.886 55.8833 256.886 56.3313 256.886 56.7688C256.907 57.2063 256.938 57.6333 256.98 58.05L260.417 58.4875V63.3H250.136C249.928 62.5708 249.73 61.8625 249.542 61.175C249.376 60.4875 249.251 59.8 249.167 59.1125C248.042 60.5292 246.678 61.6958 245.074 62.6125C243.49 63.5083 241.699 63.9563 239.699 63.9563ZM241.48 57.8625C243.063 57.8625 244.542 57.4979 245.917 56.7688C247.292 56.0188 248.324 55.0813 249.011 53.9563V48.3H243.761C241.407 48.3 239.626 48.8521 238.417 49.9563C237.23 51.0396 236.636 52.3104 236.636 53.7688C236.636 55.0813 237.053 56.0917 237.886 56.8C238.72 57.5083 239.917 57.8625 241.48 57.8625ZM281.838 63.9563C278.671 63.9563 275.921 63.2375 273.588 61.8C271.275 60.3417 269.483 58.3417 268.213 55.8C266.963 53.2375 266.338 50.2896 266.338 46.9563V45.8625C266.338 42.5917 266.963 39.675 268.213 37.1125C269.463 34.55 271.244 32.5396 273.556 31.0813C275.89 29.6021 278.64 28.8625 281.806 28.8625C284.702 28.8625 287.223 29.3313 289.369 30.2688C291.515 31.1854 293.275 32.3313 294.65 33.7063L294.681 42.7375H288.681L287.525 36.7688C286.942 36.1646 286.202 35.6854 285.306 35.3313C284.41 34.9563 283.431 34.7688 282.369 34.7688C280.64 34.7688 279.16 35.2375 277.931 36.175C276.723 37.1125 275.796 38.4146 275.15 40.0813C274.525 41.7271 274.213 43.6542 274.213 45.8625V46.9563C274.213 49.3313 274.535 51.3313 275.181 52.9563C275.827 54.5813 276.723 55.8104 277.869 56.6438C279.035 57.4771 280.369 57.8938 281.869 57.8938C283.681 57.8938 285.15 57.4042 286.275 56.425C287.421 55.4458 288.171 54.0917 288.525 52.3625H295.338L295.431 52.55C295.181 54.7583 294.525 56.7271 293.463 58.4563C292.421 60.1646 290.942 61.5083 289.025 62.4875C287.129 63.4667 284.733 63.9563 281.838 63.9563ZM317.883 63.9563C314.633 63.9563 311.841 63.2271 309.508 61.7688C307.174 60.3104 305.383 58.2896 304.133 55.7063C302.883 53.1021 302.258 50.1125 302.258 46.7375V46.0813C302.258 42.7271 302.883 39.7583 304.133 37.175C305.383 34.5917 307.174 32.5604 309.508 31.0813C311.841 29.6021 314.612 28.8625 317.82 28.8625C321.07 28.8625 323.862 29.6021 326.195 31.0813C328.528 32.5396 330.32 34.5604 331.57 37.1438C332.82 39.7271 333.445 42.7063 333.445 46.0813V46.7375C333.445 50.1125 332.82 53.1021 331.57 55.7063C330.32 58.2896 328.528 60.3104 326.195 61.7688C323.883 63.2271 321.112 63.9563 317.883 63.9563ZM317.883 57.8938C319.633 57.8938 321.07 57.425 322.195 56.4875C323.341 55.5292 324.195 54.2167 324.758 52.55C325.32 50.8625 325.601 48.925 325.601 46.7375V46.0813C325.601 43.9146 325.32 41.9979 324.758 40.3313C324.195 38.6646 323.341 37.3521 322.195 36.3938C321.049 35.4354 319.591 34.9563 317.82 34.9563C316.091 34.9563 314.653 35.4354 313.508 36.3938C312.362 37.3521 311.508 38.6646 310.945 40.3313C310.403 41.9979 310.133 43.9146 310.133 46.0813V46.7375C310.133 48.925 310.403 50.8625 310.945 52.55C311.508 54.2167 312.362 55.5292 313.508 56.4875C314.674 57.425 316.133 57.8938 317.883 57.8938ZM351.865 63.3L340.896 34.8625L337.303 34.3313V29.4875H352.771V34.3313L348.865 34.9563L354.959 51.925L355.771 54.6125H355.959L356.896 51.925L363.053 34.9563L358.771 34.3313V29.4875H374.209V34.3313L370.521 34.8938L359.521 63.3H351.865Z" fill="#682283"/>
</svg>
